<!-- Generated by IcoMoon.io -->


<svg version="1.1" xmlns="http://www.w3.org/2000/svg" viewBox="0 0 1536 1024">
<title></title>
<g id="icomoon-ignore">
</g>
<path fill="#D4AD72" d="M630.682 561.905c-5.961 2.71-10.658 9.033-8.672 16.71 2.71 6.323 9.394 10.658 16.8 8.672 6.323-2.348 10.297-8.672 9.033-15.897-1.987-6.774-9.033-11.381-17.161-9.484zM830.483 556.305c-20.143 12.284-41.188 28.272-54.918 48.596-11.381 18.607-19.059 47.873-5.329 67.835 4.336 5.329 10.387 7.678 17.433 6.323 7.678-1.626 10.116-9.665 12.103-15.987 5.239-37.486 9.936-77.138 30.711-106.765zM1217.98 530.743c-78.132-38.569-166.56 1.716-250.021-0.632-34.866 3.342-76.144-15.987-104.597 10.387-31.523 39.563-30.44 100.803-25.833 147.682 5.058-37.214 8.762-74.88 41.279-100.803 11.020-9.033 25.111-15.626 39.202-12.646-7.045 7.949-9.755 18.607-7.045 29.627 1.626 5.961 8.31 10.929 14.362 12.556 52.66 10.387 90.144-25.923 128.804-54.196 47.602-31.614 125.643-39.924 175.864-7.949 44.531 27.278 67.384 73.164 67.112 123.746 2.348-27.278 0-54.647-10.749-77.5-10.839-29.717-40.285-56.002-68.377-70.273zM724.259 493.077c-3.342 3.975-5.329 9.304-3.342 14.272 3.704 6.684 10.749 10.026 17.795 7.316 6.684-2.981 8.039-9.665 7.316-16.62-3.071-8.942-15.807-10.568-21.768-4.968zM831.116 482.147c-73.706 36.943-117.244 112.817-122.302 191.672 13.098-46.608 43.899-89.152 85.448-120.766 19.42-16.349 43.628-23.937 60.97-43.899 3.794-6.955 0.993-15.987-4.065-21.588-5.329-5.419-12.284-6.142-20.052-5.419zM742.686 405.28c-38.208 28.272-72.352 65.847-102.881 102.159 36.582-26.285 73.435-51.847 111.642-74.158 6.684-3.975 14.091-10.297 12.013-18.969-1.355-9.033-12.736-13.369-20.775-9.033zM274.438 343.768h-36.22v31.975h36.22v-31.975zM461.142 306.464c-16.078 9.033-3.342 28.904-1.626 42.272 15.446 48.867-5.329 112.727 21.136 157.347-5.058-51.576 9.394-97.191 24.117-141.45 2.348-19.33-6.323-36.22-17.071-51.215-6.774-6.955-16.8-9.575-26.555-6.955zM562.306 278.554c-10.387 2.62-24.478-2.981-32.879 4.607-4.607 5.6-4.607 14.272 0 19.962 25.472 13.91 29.808 39.563 31.523 64.493 11.381-16.258 17.071-36.22 14.452-57.176 0-4.697-7.045-8.31-4.065-12.013 30.801 0.632 64.041-1.987 83.461 24.027-12.013 4.968-31.885-8.039-36.853 7.949 3.704 14.994 4.336 31.614 7.406 46.969 6.323 23.937-11.381 56.905 12.013 71.809 6.684 1.987 13.73 0 19.149-2.981 29.446-23.937 67.744-53.293 55.641-95.836-1.355-33.601-38.569-37.576-56.363-59.886-22.763-23.937-64.583-21.588-93.488-11.923zM730.582 314.412c18.788 20.594 30.169 45.253 27.46 74.158 8.401 1.355 16.078 5.69 21.407 12.736 7.045 11.652-4.968 24.93 11.381 32.879l1.716 1.355 54.647-20.594c-10.116 14.633-22.129 28.634-32.879 43.266 1.084 4.607 5.058 8.31 8.762 11.923 17.795-5.329 34.505 0.632 46.608 13.369l10.387 17.614c50.311 19.24 116.339 20.323 169.903 7.316 56.002-14.362 127.992-19.33 179.929 6.955 14.452-1.355 25.833-15.626 30.891-28 4.336-8.039 13.007-4.968 19.059-2.348 7.406 2.981 15.446 9.304 18.427 16.981 8.401 17.614-3.342 32.969-13.369 46.247 64.041 63.59 48.234 167.374 33.511 249.209-7.406 41.279 44.892 44.621 57.99 74.248 5.961 47.602 20.414 101.797 0 147.682l-5.69 3.975h-69.099c-8.672-6.684-9.304-20.233-6.323-30.62 5.69-14.001 20.414-15.987 33.872-16.62 12.465-26.917-3.342-54.196-23.485-73.526-40.556-35.949-98.185-33.331-132.689-79.938-16.8-15.265-24.84-34.505-36.853-51.936-43.266 16.981-82.106 48.234-115.256 83.823-9.394 6.323-22.853 2.71-31.252-2.981-5.69-5.69-9.665-14.001-5.69-21.588 0.271-7.045 14.723-12.917 5.69-19.33-13.459 2.077-22.401 14.633-34.505 19.33-37.214 23.304-85.537 21.588-132.057 19.962l-2.348 1.716c-14.091 58.261-11.381 127.089-67.744 164.303-17.795 8.672-42.905 10.297-62.687 4.697-7.678-4.697-11.742-12.284-12.103-20.684-1.355-8.672 2.077-15.265 6.413-21.588 11.381-19.33 41.55-0.361 47.602-25.652 0.993-30.53-18.788-54.557-29.808-81.203-15.717-45.885-69.461-48.234-94.21-91.139-29.175-17.975-21.046-52.931-41.911-74.88-6.684-19.33 11.381-40.917-6.323-54.557l-55.279 21.588 36.22-47.873c-2.348-5.961-8.039-10.658-12.013-15.987-6.052 3.071-14.091 1.355-19.42-1.626-8.762-7.316-9.665-18.969-8.762-29.266-8.672 5.329-20.775 6.052-30.801 3.071-33.511-12.013-47.24-47.963-63.319-74.88l-3.342-33.601c-21.768-12.284-39.924-34.595-41.911-59.254-5.69 0.722-14.362 6.323-20.775 0.993-2.71-6.955-8.401-13.639-5.69-21.678l4.968-9.665c-67.744 3.342-142.083 4.336-208.472-3.975v-38.299c85.177-8.672 181.013-8.672 264.744 2.981-8.039-32.969 40.917-30.982 44.26-62.235 9.755-11.020 17.433 6.684 28.092 5.69 11.11 1.626 20.143 8.31 28.904 15.987 7.045-12.646 7.045-32.969 24.749-38.299 40.556 5.6 72.713-17.252 113.63-7.949 35.949 9.213 67.021 29.175 94.842 57.719zM134.884 330.491c-17.433-10.297-40.917-44.079-34.505-68.829 2.71-10.749 4.878-16.529 12.465-25.020 8.762-9.936 21.588-13.73 32.427-19.781 38.208-21.497 15.355-44.44-3.794-55.731-22.672-13.459-66.931-17.161-78.674-44.531-17.975-41.821 89.152-80.751 153.915-93.849 54.738-11.11 130.972-24.749 234.847-22.582 47.693 0.903 108.933 0.632 188.691 20.143 97.823 23.756 81.925 55.008 64.312 77.952-14.001 18.336-42.634 24.117-32.246 34.505 27.64 27.46 135.669 20.323 160.96 20.323 151.838 0 209.375 67.925 130.16 111.552-48.776 26.826-7.226 72.893 83.913 62.958 149.038-16.349 338.631-12.827 427.872 170.534-86.080-152.74-257.068-168.277-373.225-150.573-152.922 23.304-217.144-9.033-213.349-47.693 2.71-28.272 40.014-34.505 56.092-45.795 29.898-20.775-3.613-72.713-112.456-77.952-51.034-2.53-83.371-2.167-134.405-0.452-48.957 1.535-145.154-10.568-149.489-37.757-3.523-22.22 209.375-53.834 8.22-82.92-66.841-9.665-114.895-8.762-192.484-8.491-35.679-0.090-148.044 10.929-208.201 34.685-29.627 11.652-32.065 32.698-16.891 45.073 9.304 7.678 33.421 13.82 44.079 20.504 8.942 5.6 20.143 15.987 21.768 26.555 3.433 22.039-10.568 31.794-29.627 45.614-16.62 12.103-44.079 12.646-55.37 32.789-5.69 10.207-7.678 19.962-3.523 39.111 2.981 13.549 5.51 15.626 14.272 33.421z"></path>
</svg>
