<!-- Generated by IcoMoon.io -->
<svg version="1.1" xmlns="http://www.w3.org/2000/svg" width="1024" height="1024" viewBox="0 0 1024 1024">
<title></title>
<g id="icomoon-ignore">
</g>
<path fill='#f1ebdf' d="M-8.001 454.222v115.557c0 217.88 0 326.848 67.715 394.506 67.658 67.715 176.626 67.715 394.506 67.715h115.557c217.88 0 326.848 0 394.506-67.715 67.715-67.658 67.715-176.626 67.715-394.506v-115.557c0-217.88 0-326.848-67.715-394.506-67.658-67.715-176.626-67.715-394.506-67.715h-115.557c-217.88 0-326.848 0-394.506 67.715-67.715 67.658-67.715 176.626-67.715 394.506zM858.666 252c0 22.986-9.131 45.030-25.386 61.282-16.253 16.254-38.296 25.386-61.282 25.386s-45.030-9.131-61.282-25.386c-16.254-16.253-25.386-38.296-25.386-61.282s9.131-45.030 25.386-61.282c16.253-16.254 38.296-25.386 61.282-25.386s45.030 9.131 61.282 25.386c16.254 16.253 25.386 38.296 25.386 61.282zM627.555 569.778c0 30.646-12.174 60.039-33.845 81.709s-51.065 33.846-81.71 33.846-60.040-12.174-81.71-33.846c-21.67-21.67-33.845-51.062-33.845-81.709 0-30.65 12.174-60.040 33.845-81.71s51.065-33.846 81.71-33.846c30.646 0 60.040 12.175 81.71 33.846s33.845 51.062 33.845 81.71zM743.116 569.778c0 61.294-24.35 120.078-67.69 163.419s-102.126 67.69-163.421 67.69-120.078-24.348-163.421-67.69c-43.342-43.342-67.69-102.126-67.69-163.419s24.35-120.079 67.69-163.421c43.343-43.342 102.126-67.69 163.421-67.69s120.078 24.35 163.421 67.69c43.342 43.342 67.69 102.126 67.69 163.421z"></path>
</svg>
