<!-- Generated by IcoMoon.io -->
<svg version="1.1" xmlns="http://www.w3.org/2000/svg" width="1024" height="1024" viewBox="0 0 1024 1024">
<title></title>
<g id="icomoon-ignore">
</g>
<path fill='#D4AD72' d="M512.001 1023.999c-70.467 0-136.836-13.465-199.112-40.392-62.273-26.927-116.507-63.526-162.702-109.795-46.27-46.156-82.868-100.39-109.796-162.702-26.927-62.275-40.391-128.645-40.391-199.112 0-70.656 13.464-137.082 40.391-199.281 26.966-62.199 63.563-116.395 109.796-162.588 46.156-46.194 100.39-82.755 162.702-109.682 62.275-26.966 128.645-40.448 199.112-40.448 70.656 0 137.082 13.464 199.281 40.391 62.199 26.966 116.394 63.563 162.589 109.796 46.192 46.194 82.753 100.371 109.68 162.531 26.966 62.199 40.449 128.625 40.449 199.281 0 70.467-13.465 136.836-40.392 199.112-26.927 62.272-63.526 116.507-109.795 162.702-46.195 46.233-100.371 82.829-162.531 109.795-62.199 26.927-128.625 40.392-199.281 40.392zM512.001 967.565c33.374-42.893 60.91-85.012 82.603-126.35 21.657-41.337 39.273-87.608 52.849-138.808h-270.903c15.019 54.084 32.995 101.793 53.931 143.133 20.933 41.34 48.109 82.015 81.522 122.026zM439.581 959.032c-26.547-31.288-50.782-69.974-72.704-116.053-21.921-46.042-38.229-92.917-48.926-140.629h-218.224c32.616 70.77 78.829 128.798 138.638 174.079 59.846 45.286 126.901 72.819 201.158 82.603zM584.364 959.032c74.258-9.784 141.312-37.317 201.16-82.603 59.845-45.283 106.059-103.309 138.638-174.079h-218.115c-14.41 48.431-32.557 95.688-54.441 141.768-21.921 46.042-44.335 84.348-67.243 114.915zM76.517 645.461h229.546c-4.323-23.325-7.357-46.061-9.102-68.209-1.821-22.148-2.731-43.901-2.731-65.252s0.89-43.103 2.673-65.252c1.783-22.148 4.817-44.903 9.102-68.266h-229.375c-6.182 19.72-11.017 41.206-14.507 64.455s-5.234 46.271-5.234 69.064c0 22.831 1.726 45.853 5.177 69.064 3.489 23.249 8.325 44.714 14.507 64.397zM363.008 645.461h297.984c4.325-23.325 7.359-45.7 9.104-67.128 1.819-21.392 2.731-43.502 2.731-66.334s-0.893-44.941-2.673-66.334c-1.783-21.428-4.817-43.802-9.104-67.128h-298.096c-4.287 23.325-7.321 45.7-9.104 67.128-1.78 21.392-2.673 43.502-2.673 66.334s0.893 44.941 2.673 66.334c1.783 21.428 4.874 43.802 9.159 67.128zM717.94 645.461h229.487c6.182-19.72 11.018-41.187 14.508-64.397s5.216-46.233 5.177-69.064c0-22.831-1.726-45.853-5.177-69.064-3.49-23.249-8.326-44.714-14.508-64.397h-229.545c4.323 23.325 7.357 46.061 9.102 68.209 1.821 22.148 2.731 43.901 2.731 65.252s-0.89 43.103-2.673 65.252c-1.783 22.148-4.817 44.903-9.102 68.266zM706.105 321.651h218.112c-33.336-72.212-78.998-130.239-136.986-174.080-58.026-43.843-125.63-71.718-202.809-83.626 26.547 34.892 50.421 74.828 71.622 119.808 21.162 44.942 37.85 90.907 50.062 137.899zM376.549 321.651h270.903c-15.019-53.401-33.546-101.68-55.58-144.84-21.998-43.197-48.622-83.323-79.872-120.377-31.215 37.054-57.838 77.179-79.872 120.377-21.998 43.16-40.523 91.439-55.58 144.84zM99.784 321.651h218.113c12.212-46.992 28.898-92.957 50.062-137.899 21.201-44.981 45.075-84.936 71.622-119.865-77.9 11.946-145.673 40.011-203.32 84.196-57.647 44.222-103.158 102.059-136.533 173.511z"></path>
</svg>
