<!-- Generated by IcoMoon.io -->
<svg version="1.1" xmlns="http://www.w3.org/2000/svg" width="946" height="1024" viewBox="0 0 946 1024">
<title></title>
<g id="icomoon-ignore">
</g>
<path fill='#D4AD72' d="M472.999 0.149c-189.128 0-346.87 144.898-346.87 329.904 0 70.385 22.238 133.146 64.915 191.957l255.409 379.049c12.391 18.427 40.726 18.391 53.091 0l256.518-380.339c41.759-56.145 63.807-122.072 63.807-190.667 0-181.909-155.605-329.904-346.87-329.904zM472.999 480.010c-86.935 0-157.668-67.275-157.668-149.957s70.734-149.955 157.668-149.955c86.935 0 157.668 67.273 157.668 149.955s-70.734 149.957-157.668 149.957z"></path>
<path fill='#D4AD72' d="M719.516 689.338l-158.785 236.105c-41.1 60.946-134.594 60.745-175.497 0.058l-159.042-236.1c-139.934 30.769-226.198 87.141-226.198 154.501 0 116.892 243.71 179.949 473.005 179.949s473.007-63.058 473.007-179.949c0-67.409-86.383-123.81-226.487-154.564z"></path>
</svg>
