<!-- Generated by IcoMoon.io -->
<svg version="1.1" xmlns="http://www.w3.org/2000/svg" width="1024" height="1024" viewBox="0 0 1024 1024">
<title></title>
<g id="icomoon-ignore">
</g>
<path fill='#D4AD72' d="M21.379 190.312c140.54 119.023 387.143 328.418 459.623 393.709 9.731 8.811 20.166 13.291 31.001 13.291 10.812 0 21.229-4.437 30.938-13.208 72.541-65.354 319.145-274.77 459.687-393.793 8.749-7.395 10.084-20.395 2.999-29.438-16.376-20.894-40.792-32.874-66.959-32.874h-853.33c-26.166 0-50.584 11.98-66.958 32.876-7.084 9.040-5.75 22.041 3 29.436z"></path>
<path fill='#D4AD72' d="M1011.626 254.812c-7.563-3.521-16.459-2.292-22.751 3.083-155.856 132.125-354.771 301.48-417.354 357.875-35.127 31.707-83.876 31.707-119.085-0.043-66.708-60.104-290.084-249.999-417.312-357.834-6.334-5.375-15.25-6.561-22.751-3.083-7.54 3.5-12.374 11.043-12.374 19.355v536.501c0 47.063 38.27 85.334 85.334 85.334h853.333c47.061 0 85.332-38.271 85.332-85.334v-536.501c0-8.311-4.834-15.873-12.374-19.353z"></path>
</svg>
