<!-- Generated by IcoMoon.io -->
<svg version="1.1" xmlns="http://www.w3.org/2000/svg" width="1024" height="1024" viewBox="0 0 1024 1024">
<title></title>
<g id="icomoon-ignore">
</g>
<path fill='#D4AD72' d="M916.211 484.998h107.79c0-276.475-208.731-484.992-485.586-484.992v107.788c218.918 0 377.796 158.611 377.796 377.204z"></path>
<path fill='#D4AD72' d="M538.955 323.371c113.341 0 161.684 48.342 161.684 161.681h107.787c0-173.807-95.661-269.471-269.471-269.471v107.79zM723.381 616.717c-10.354-9.414-23.963-14.434-37.951-14.001s-27.259 6.283-37.015 16.316l-128.97 132.634c-31.042-5.928-93.45-25.384-157.692-89.464-64.244-64.295-83.7-126.867-89.466-157.694l132.526-129.021c10.046-9.75 15.909-23.023 16.338-37.015 0.432-13.992-4.596-27.604-14.020-37.953l-199.139-218.971c-9.429-10.382-22.535-16.679-36.53-17.555-13.999-0.876-27.787 3.741-38.436 12.867l-116.951 100.296c-9.317 9.353-14.879 21.797-15.629 34.978-0.809 13.474-16.222 332.633 231.259 580.225 215.9 215.846 486.341 231.635 560.823 231.635 10.886 0 17.569-0.323 19.348-0.431 13.176-0.739 25.616-6.324 34.922-15.684l100.244-117.003c9.132-10.642 13.757-24.426 12.893-38.425-0.866-13.997-7.153-27.106-17.53-36.543l-219.026-199.191z"></path>
</svg>
