<svg width="75" height="75" viewBox="0 0 75 75" fill="none" xmlns="http://www.w3.org/2000/svg">
<g clip-path="url(#clip0_54_723)">
<path d="M37.8613 -0.200684C17.1527 -0.200684 0.360352 16.5897 0.360352 37.3003C0.360352 52.656 9.59401 65.8464 22.8075 71.6464C22.7017 69.0282 22.7873 65.883 23.4604 63.0378C24.1815 59.9916 28.2854 42.6032 28.2854 42.6032C28.2854 42.6032 27.0873 40.2089 27.0873 36.6705C27.0873 31.1137 30.3084 26.9609 34.318 26.9609C37.7286 26.9609 39.3767 29.5224 39.3767 32.5907C39.3767 36.0195 37.1911 41.1445 36.0661 45.8984C35.1257 49.8782 38.0613 53.1214 41.9854 53.1214C49.0902 53.1214 53.8748 43.9964 53.8748 33.183C53.8748 24.9666 48.3402 18.8147 38.2719 18.8147C26.8959 18.8147 19.8094 27.2974 19.8094 36.7724C19.8094 40.0416 20.7729 42.3445 22.2825 44.1262C22.9757 44.9464 23.0719 45.2762 22.8209 46.2185C22.6411 46.908 22.2277 48.5685 22.0575 49.2272C21.8084 50.1772 21.0392 50.5157 20.1796 50.1657C14.9402 48.0262 12.4998 42.2887 12.4998 35.8387C12.4998 25.1849 21.4834 12.4128 39.3007 12.4128C53.619 12.4128 63.0421 22.7734 63.0421 33.8974C63.0421 48.606 54.8632 59.5964 42.8075 59.5964C38.7603 59.5964 34.9517 57.407 33.6469 54.9224C33.6469 54.9224 31.47 63.5609 31.0094 65.232C30.2142 68.1234 28.6575 71.0137 27.2344 73.2647C30.6848 74.285 34.2642 74.8031 37.8623 74.8032C58.57 74.8012 75.3604 58.0099 75.3604 37.3003C75.3604 16.5897 58.57 -0.200684 37.8613 -0.200684Z" fill="white"/>
</g>
<defs>
<clipPath id="clip0_54_723">
<rect width="75" height="75" fill="white"/>
</clipPath>
</defs>
</svg>
