<?xml version="1.0" encoding="utf-8"?>
<!-- Generator: Adobe Illustrator 26.5.0, SVG Export Plug-In . SVG Version: 6.00 Build 0)  -->
<svg version="1.1" id="Слой_1" xmlns="http://www.w3.org/2000/svg" xmlns:xlink="http://www.w3.org/1999/xlink" x="0px" y="0px"
	 viewBox="0 0 512 512" style="enable-background:new 0 0 512 512;" xml:space="preserve">
<style type="text/css">
	.st0{fill:#F1EBDF;}
</style>
<path class="st0" d="M435.2,0H76.8C34.4,0,0,34.4,0,76.8v358.4C0,477.6,34.4,512,76.8,512h358.4c42.4,0,76.8-34.4,76.8-76.8V76.8
	C512,34.4,477.6,0,435.2,0z M424,146l-55,258c-4,18-16,23-30,14l-135-99l155-139c6-7-2-9-11-4L158,297l-83-26c-17-5-17-18,4-26
	l321-124C415,114,429,124,424,146z"/>
</svg>
