<!-- Generated by IcoMoon.io -->
<svg version="1.1" xmlns="http://www.w3.org/2000/svg" width="1024" height="1024" viewBox="0 0 1024 1024">
<title></title>
<g id="icomoon-ignore">
</g>
<path fill='#f1ebdf' d="M403.193-7.868l31.59-0.13 186.073 0.13 39.607 0.434 18.763 0.304 18.113 0.476 17.464 0.606 16.814 0.694 16.205 0.91 15.601 1.084 14.949 1.3 14.43 1.43c75.4 8.494 127.096 26.695 166.096 65.696s57.2 90.658 65.694 166.104l1.473 14.43 1.256 14.993 1.083 15.601 0.867 16.164 1.083 25.48 0.52 17.768 0.564 27.907 0.389 39.651 0.174 42.469-0.043 143.57-0.131 31.635-0.433 39.608-0.304 18.764-0.476 18.113-0.607 17.465-0.694 16.814-0.91 16.207-1.083 15.601-1.299 14.95-1.43 14.43c-8.494 75.403-26.694 127.102-65.694 166.103s-90.654 57.203-166.096 65.697l-14.43 1.473-14.993 1.256-15.6 1.083-16.163 0.867-25.48 1.083-17.767 0.52-27.906 0.564-39.651 0.389-42.466 0.174-175.197-0.174-39.605-0.433-18.764-0.304-18.113-0.476-17.464-0.607-16.814-0.694-16.205-0.91-15.6-1.083-14.95-1.301-14.43-1.429c-75.4-8.494-127.096-26.696-166.096-65.697s-57.2-90.657-65.694-166.103l-1.474-14.43-1.256-14.995-1.084-15.6-0.866-16.164-1.084-25.481-0.52-17.767-0.564-27.907-0.39-39.652-0.174-42.467 0.044-143.57 0.13-31.635 0.434-39.608 0.304-18.764 0.476-18.115 0.606-17.464 0.694-16.814 0.91-16.208 1.084-15.6 1.3-14.95 1.43-14.43c8.494-75.404 26.694-127.102 65.694-166.104s90.654-57.202 166.096-65.696l14.43-1.474 14.993-1.256 15.6-1.084 16.163-0.866 25.48-1.084 17.767-0.52 27.907-0.564 39.65-0.39zM286.236 308.307h-118.733c5.633 270.411 140.833 432.919 377.867 432.919h13.433v-154.706c87.101 8.666 152.967 72.369 179.4 154.706h123.066c-33.8-123.071-122.633-191.108-178.099-217.109 55.466-32.067 133.466-110.071 152.099-215.808h-111.8c-24.266 85.803-96.2 163.806-164.666 171.172v-171.172h-111.8v299.88c-69.334-17.336-156.866-101.404-160.767-299.88z"></path>
</svg>
